<?xml version="1.0" encoding="UTF-8" standalone="no"?>
<svg width="160px" height="57px" viewBox="0 0 160 57" version="1.1" xmlns="http://www.w3.org/2000/svg" xmlns:xlink="http://www.w3.org/1999/xlink" xmlns:sketch="http://www.bohemiancoding.com/sketch/ns">
    <!-- Generator: Sketch 3.1.1 (8761) - http://www.bohemiancoding.com/sketch -->
    <title>button-android-black</title>
    <desc>Created with Sketch.</desc>
    <defs>
        <linearGradient x1="60.0995717%" y1="91.9797552%" x2="33.5000976%" y2="-59.2459079%" id="linearGradient-1">
            <stop stop-color="#D7E69D" offset="0%"></stop>
            <stop stop-color="#94C4AA" offset="44.56%"></stop>
            <stop stop-color="#01A4B6" offset="100%"></stop>
        </linearGradient>
        <linearGradient x1="-31.9859505%" y1="-128.818008%" x2="80.4721996%" y2="114.258403%" id="linearGradient-2">
            <stop stop-color="#ED277B" offset="0%"></stop>
            <stop stop-color="#EE2F7C" offset="1.92%"></stop>
            <stop stop-color="#F7BD81" offset="70.39%"></stop>
            <stop stop-color="#FEEB74" offset="100%"></stop>
        </linearGradient>
        <linearGradient x1="50.9068572%" y1="74.7179969%" x2="-0.00833083431%" y2="-29.4385912%" id="linearGradient-3">
            <stop stop-color="#89CFBD" offset="0%"></stop>
            <stop stop-color="#7DBEBB" offset="9.07%"></stop>
            <stop stop-color="#457CAC" offset="53.96%"></stop>
            <stop stop-color="#1C5AA2" offset="85.23%"></stop>
            <stop stop-color="#084D9F" offset="100%"></stop>
        </linearGradient>
        <linearGradient x1="119.297308%" y1="35.6799782%" x2="-22.9911292%" y2="61.1851255%" id="linearGradient-4">
            <stop stop-color="#F04A2B" offset="0%"></stop>
            <stop stop-color="#B54F6B" offset="47.04%"></stop>
            <stop stop-color="#8B5191" offset="83.53%"></stop>
            <stop stop-color="#7851A1" offset="100%"></stop>
        </linearGradient>
    </defs>
    <g id="Page-1" stroke="none" stroke-width="1" fill="none" fill-rule="evenodd" sketch:type="MSPage">
        <g id="HomePage_13" sketch:type="MSArtboardGroup" transform="translate(-851.000000, -3859.000000)">
            <g id="iOS/Android" sketch:type="MSLayerGroup" transform="translate(0.000000, 3545.000000)">
                <g id="button-android-black" transform="translate(852.000000, 315.000000)" sketch:type="MSShapeGroup">
                    <path d="M158.31506,47.1046552 C158.31506,51.9588793 154.777929,54.9762931 149.968333,54.9762931 L8.56303571,54.9762931 C3.75155952,54.9762931 -0.151416667,51.04 -0.151416667,46.1848276 L-0.151416667,9.0512931 C-0.151416667,4.19801724 3.75061905,0.262672414 8.56303571,0.262672414 L149.968333,0.262672414 C154.777929,0.262672414 158.31506,4.19801724 158.31506,9.0512931 L158.31506,47.1046552 L158.31506,47.1046552 Z" id="Shape" stroke="#FFFFFF" stroke-width="1.1058119" fill="#010101"></path>
                    <path d="M158.31506,47.1046552 C158.31506,51.9588793 154.777929,54.9762931 149.968333,54.9762931 L8.56303571,54.9762931 C3.75155952,54.9762931 -0.151416667,51.04 -0.151416667,46.1848276 L-0.151416667,9.0512931 C-0.151416667,4.19801724 3.75061905,0.262672414 8.56303571,0.262672414 L149.968333,0.262672414 C154.777929,0.262672414 158.31506,4.19801724 158.31506,9.0512931 L158.31506,47.1046552 L158.31506,47.1046552 Z" id="Shape" stroke="#FFFFFF" stroke-width="1.1058119" fill="#010101"></path>
                    <g id="Group" transform="translate(36.678571, 23.706897)" fill="#FFFFFF">
                        <g id="Shape">
                            <path d="M71.4649048,15.8286207 L70.2733214,16.9599138 C69.9996429,17.1106897 69.7259643,17.2899138 69.4522857,17.4141379 C68.6265476,17.7925 67.7867024,17.8873276 67.0409048,17.8873276 C66.2443214,17.8873276 65.0000714,17.8351724 63.7294881,16.9087069 C61.9623333,15.6550862 61.1920833,13.5006034 61.1920833,11.6211207 C61.1920833,7.7312931 64.3332738,5.82525862 66.89325,5.82525862 C67.7885833,5.82525862 68.7074286,6.05189655 69.4551071,6.52793103 C70.6984167,7.35577586 71.0200595,8.43396552 71.19875,9.01051724 L65.3499286,11.3935345 L63.4332381,11.5433621 C64.0539524,14.7305172 66.1944762,16.5843966 68.5578929,16.5843966 C69.739131,16.5843966 70.6156548,16.1975 71.4197619,15.7963793 C71.4188214,15.7973276 71.5805833,15.712931 71.4649048,15.8286207 L71.4649048,15.8286207 Z M67.9362381,9.48655172 C68.4111786,9.31206897 68.6585238,9.1612931 68.6585238,8.81232759 C68.6585238,7.81 67.5346548,6.655 66.1935357,6.655 C65.1994524,6.655 63.3335476,7.43448276 63.3335476,10.1456034 C63.3335476,10.5666379 63.3833929,11.0180172 63.4087857,11.4693966 L67.9362381,9.48655172 L67.9362381,9.48655172 Z"></path>
                            <path d="M59.2368333,15.6332759 C59.2368333,16.6081034 59.409881,16.7598276 60.2271548,16.8375862 C60.6531905,16.8878448 61.0782857,16.9096552 61.5005595,16.9618103 L60.5798333,17.5127586 L56.1972143,17.5127586 C56.7718452,16.7617241 56.8696548,16.6868103 56.8696548,16.187069 L56.8696548,15.6247414 L56.86025,0.712155172 L54.9238095,0.712155172 L56.7859524,-0.193448276 L60.3428333,-0.193448276 C59.5725833,0.256982759 59.3412262,0.530086207 59.2415357,1.40724138 L59.2368333,15.6332759 L59.2368333,15.6332759 Z"></path>
                            <path d="M52.4390714,7.05612069 C53.009,7.53025862 54.2015238,8.53448276 54.2015238,10.439569 C54.2015238,12.2962931 53.1632381,13.1725 52.1155476,14.0022414 C51.7939048,14.3284483 51.4186548,14.6831034 51.4186548,15.2312069 C51.4186548,15.785 51.7939048,16.0846552 52.0657024,16.3112931 L52.9657381,17.0092241 C54.05575,17.9385345 55.0535952,18.792931 55.0535952,20.5235345 C55.0535952,22.8828448 52.789869,25.2611207 48.5097619,25.2611207 C44.9039762,25.2611207 43.1612738,23.5324138 43.1612738,21.6766379 C43.1612738,20.7719828 43.6070595,19.4927586 45.0779643,18.6156034 C46.6212857,17.665431 48.7100833,17.5374138 49.8301905,17.4643966 C49.4803333,17.0092241 49.0815714,16.5322414 49.0815714,15.7556034 C49.0815714,15.3298276 49.2094762,15.0756897 49.3307976,14.7769828 C49.059,14.8035345 48.7853214,14.8319828 48.5351548,14.8319828 C45.8961786,14.8319828 44.4027024,12.8443966 44.4027024,10.8918966 C44.4027024,9.73689655 44.9265476,8.45862069 45.9968095,7.53025862 C47.4150476,6.3525 49.1069643,6.14862069 50.4480833,6.14862069 L55.574619,6.14862069 L53.9833333,7.05612069 L52.4390714,7.05612069 L52.4390714,7.05612069 Z M50.6756786,18.1926724 C50.4715952,18.167069 50.3483929,18.167069 50.103869,18.167069 C49.8790952,18.167069 48.5351548,18.2173276 47.4940476,18.5691379 C46.9448095,18.7730172 45.3525833,19.3713793 45.3525833,21.1531897 C45.3525833,22.9312069 47.0708333,24.2151724 49.728619,24.2151724 C52.1174286,24.2151724 53.386131,23.0601724 53.386131,21.5068966 C53.38425,20.2248276 52.5641548,19.5487069 50.6756786,18.1926724 L50.6756786,18.1926724 Z M51.3904405,13.4256897 C51.9669524,12.8462931 52.0158571,12.0478448 52.0158571,11.5926724 C52.0158571,9.79 50.9493571,6.97931034 48.88125,6.97931034 C48.2360833,6.97931034 47.5373095,7.30551724 47.1394881,7.81 C46.7209762,8.33344828 46.5949524,9.01146552 46.5949524,9.66198276 C46.5949524,11.3413793 47.5655238,14.1283621 49.7022857,14.1283621 C50.3267619,14.1283621 50.9973214,13.822069 51.3904405,13.4256897 L51.3904405,13.4256897 Z"></path>
                            <path d="M37.0152619,17.8380172 C33.0605595,17.8380172 30.9454286,14.7333621 30.9454286,11.9226724 C30.9454286,8.63784483 33.6050952,5.8262069 37.3876905,5.8262069 C41.0442619,5.8262069 43.3352619,8.71275862 43.3352619,11.7443966 C43.3352619,14.7039655 41.0715357,17.8380172 37.0152619,17.8380172 L37.0152619,17.8380172 Z M40.1263571,15.8077586 C40.7282619,15.0055172 40.8730952,14.0041379 40.8730952,13.0264655 C40.8730952,10.817931 39.8291667,6.60474138 36.7434643,6.60474138 C35.923369,6.60474138 35.097631,6.92810345 34.5023095,7.4562931 C33.5289167,8.33344828 33.3568095,9.43534483 33.3568095,10.5182759 C33.3568095,12.9961207 34.5719048,17.0841379 37.5880119,17.0841379 C38.5604643,17.0841379 39.5526667,16.61 40.1263571,15.8077586 L40.1263571,15.8077586 Z"></path>
                            <path d="M23.7752381,17.8380172 C19.8195952,17.8380172 17.7082262,14.7333621 17.7082262,11.9226724 C17.7082262,8.63784483 20.3697738,5.8262069 24.1504881,5.8262069 C27.806119,5.8262069 30.0933571,8.71275862 30.0933571,11.7443966 C30.0933571,14.7039655 27.8333929,17.8380172 23.7752381,17.8380172 L23.7752381,17.8380172 Z M26.8872738,15.8077586 C27.4835357,15.0055172 27.6330714,14.0041379 27.6330714,13.0264655 C27.6330714,10.817931 26.5863214,6.60474138 23.5034405,6.60474138 C22.6805238,6.60474138 21.8623095,6.92810345 21.2660476,7.4562931 C20.2917143,8.33344828 20.1205476,9.43534483 20.1205476,10.5182759 C20.1205476,12.9961207 21.3394048,17.0841379 24.349869,17.0841379 C25.3223214,17.0841379 26.3135833,16.61 26.8872738,15.8077586 L26.8872738,15.8077586 Z"></path>
                            <path d="M16.1272857,16.9675 L12.7914167,17.7375 C11.4408929,17.9537069 10.2276786,18.1424138 8.9429881,18.1424138 C2.51013095,18.1424138 0.0583095238,13.3678448 0.0583095238,9.63068966 C0.0583095238,5.06758621 3.5314881,0.83637931 9.47905952,0.83637931 C10.7364762,0.83637931 11.9478095,1.02224138 13.0509881,1.32474138 C14.7983929,1.82068966 15.6166071,2.43137931 16.1272857,2.78887931 L14.1889643,4.64560345 L13.3716905,4.82767241 L13.9538452,3.89267241 C13.1657262,3.11603448 11.7155119,1.6812931 8.96367857,1.6812931 C5.28359524,1.6812931 2.50825,4.50051724 2.50825,8.61982759 C2.50825,13.0406897 5.67859524,17.2007759 10.7599881,17.2007759 C12.2544048,17.2007759 13.0227738,16.8982759 13.7196667,16.6166379 L13.7196667,12.825431 L10.1985238,13.0150862 L12.065369,12.0051724 L17.006631,12.0051724 L16.4009643,12.5921552 C16.2382619,12.7315517 16.2175714,12.7780172 16.1714881,12.9676724 C16.1470357,13.182931 16.1244643,13.8618966 16.1244643,14.1018103 L16.1244643,16.9675 L16.1272857,16.9675 L16.1272857,16.9675 Z"></path>
                        </g>
                        <g transform="translate(77.119048, 1.896552)" id="Shape">
                            <path d="M1.5169881,14.0392241 L1.5169881,20.4287069 L0.258630952,20.4287069 L0.258630952,4.17051724 L1.5169881,4.17051724 L1.5169881,6.02060345 C2.33614286,4.82482759 3.83432143,3.87655172 5.5732619,3.87655172 C8.69282143,3.87655172 10.7966667,6.26336207 10.7966667,10.0403448 C10.7966667,13.7936207 8.69470238,16.2297414 5.5732619,16.2297414 C3.93213095,16.2316379 2.46122619,15.3781897 1.5169881,14.0392241 L1.5169881,14.0392241 Z M9.44520238,10.0422414 C9.44520238,7.19456897 7.97335714,5.02301724 5.36165476,5.02301724 C3.74027381,5.02301724 2.19130952,6.30698276 1.5169881,7.42689655 L1.5169881,12.6310345 C2.19130952,13.7528448 3.74027381,15.0851724 5.36165476,15.0851724 C7.97335714,15.0851724 9.44520238,12.8946552 9.44520238,10.0422414 L9.44520238,10.0422414 Z"></path>
                            <path d="M12.5149167,15.939569 L12.5149167,-0.317672414 L13.7751548,-0.317672414 L13.7751548,15.939569 L12.5149167,15.939569 L12.5149167,15.939569 Z"></path>
                            <path d="M27.8935833,19.377069 C28.161619,19.4984483 28.6205714,19.5733621 28.912119,19.5733621 C29.6804881,19.5733621 30.2184405,19.2547414 30.6980833,18.1338793 L31.617869,16.0372414 L26.660619,4.17051724 L28.0638095,4.17051724 L32.3166429,14.454569 L36.5280952,4.17051724 L37.9519762,4.17051724 L31.9047143,18.5264655 C31.2783571,20.0067241 30.2908571,20.717931 28.9346905,20.717931 C28.5274643,20.717931 27.9923333,20.6439655 27.6772738,20.5472414 L27.8935833,19.377069 L27.8935833,19.377069 Z"></path>
                            <path d="M24.2172619,15.9035345 C24.132619,15.4938793 24.0705476,15.135431 24.0244643,14.8348276 C23.9859048,14.537069 23.9652143,14.227931 23.9652143,13.9168966 C23.5335357,14.5560345 22.9222262,15.087069 22.1425714,15.5062069 C21.3610357,15.9262931 20.619,16.1339655 19.5995238,16.1339655 C18.3740833,16.1339655 17.4242024,15.8314655 16.7432976,15.2131897 C16.0661548,14.5968103 15.7257024,13.7613793 15.7257024,12.705 C15.7257024,11.6486207 16.2194524,10.7923276 17.20225,10.1399138 C18.1859881,9.48086207 19.4565714,9.15560345 21.0299881,9.15560345 L23.9652143,9.15560345 L23.9652143,7.69146552 C23.9652143,6.8475 23.6793095,6.1875 23.1112619,5.70577586 C22.5413333,5.225 21.7400476,4.98318966 20.7017619,4.98318966 C19.751881,4.98318966 18.9825714,5.20413793 18.3975952,5.63655172 C17.8173214,6.07844828 17.5238929,6.62465517 17.5238929,7.2837069 L16.2354405,7.2837069 L16.2109881,7.22112069 C16.1639643,6.33163793 16.5664881,5.55215517 17.4251429,4.87982759 C18.2762738,4.20560345 19.3973214,3.86896552 20.7741786,3.86896552 C22.1435119,3.86896552 23.2551548,4.20275862 24.0921786,4.86560345 C24.9282619,5.52275862 25.3467738,6.47482759 25.3467738,7.71801724 L25.3467738,13.5233621 C25.3467738,13.9396552 25.3665238,14.3426724 25.41825,14.7352586 C25.4727976,15.1287931 25.5555595,15.520431 25.6702976,15.9006897 L24.2172619,15.9035345 L24.2172619,15.9035345 Z M19.751881,14.9799138 C20.8212024,14.9799138 21.588631,14.7390517 22.374869,14.262069 C23.1535833,13.7888793 23.6858929,13.1725 23.9633333,12.4243103 L23.9633333,10.1636207 L21.014,10.1636207 C19.8873095,10.1636207 18.9562381,10.4158621 18.2207857,10.9222414 C17.4862738,11.4276724 17.1119643,12.0402586 17.1119643,12.7524138 C17.1119643,13.4237931 17.3489643,13.9586207 17.8173214,14.365431 C18.2894405,14.7760345 18.9327262,14.9799138 19.751881,14.9799138 L19.751881,14.9799138 Z"></path>
                        </g>
                    </g>
                    <g id="Group" transform="translate(36.678571, 7.586207)" fill="#FFFFFF">
                        <path d="M0.11097619,4.36301724 C0.11097619,1.86525862 1.95242857,0.257931034 4.24154762,0.257931034 C5.77546429,0.257931034 6.77895238,0.995689655 7.40342857,1.89939655 L6.28332143,2.5537069 C5.85822619,1.96008621 5.11430952,1.49543103 4.24154762,1.49543103 C2.68411905,1.49543103 1.52733333,2.68551724 1.52733333,4.36206897 C1.52733333,6.01681034 2.68411905,7.22965517 4.24154762,7.22965517 C5.04377381,7.22965517 5.7510119,6.86077586 6.10557143,6.5175 L6.10557143,5.29043103 L3.74591667,5.29043103 L3.74591667,4.06525862 L7.47396429,4.06525862 L7.47396429,7.02862069 C6.70747619,7.89724138 5.59771429,8.48043103 4.24060714,8.48043103 C1.95242857,8.48043103 0.11097619,6.85034483 0.11097619,4.36301724 L0.11097619,4.36301724 Z" id="Shape"></path>
                        <path d="M9.18280952,8.32586207 L9.18280952,0.388793103 L14.5755,0.388793103 L14.5755,1.61396552 L10.5634286,1.61396552 L10.5634286,3.66034483 L14.4927381,3.66034483 L14.4927381,4.88551724 L10.5634286,4.88551724 L10.5634286,7.0987931 L14.5755,7.0987931 L14.5755,8.32491379 L9.18280952,8.32586207 L9.18280952,8.32586207 Z" id="Shape"></path>
                        <path d="M18.3957143,8.32586207 L18.3957143,1.61491379 L16.0125476,1.61491379 L16.0125476,0.389741379 L22.1595,0.389741379 L22.1595,1.61491379 L19.7763333,1.61491379 L19.7763333,8.32586207 L18.3957143,8.32586207 L18.3957143,8.32586207 Z" id="Shape"></path>
                        <path d="M26.9578095,8.32586207 L26.9578095,0.388793103 L28.3384286,0.388793103 L28.3384286,8.32586207 L26.9578095,8.32586207 L26.9578095,8.32586207 Z" id="Shape"></path>
                        <path d="M32.1821548,8.32586207 L32.1821548,1.61491379 L29.7989881,1.61491379 L29.7989881,0.389741379 L35.9459405,0.389741379 L35.9459405,1.61491379 L33.5627738,1.61491379 L33.5627738,8.32586207 L32.1821548,8.32586207 L32.1821548,8.32586207 Z" id="Shape"></path>
                        <path d="M40.4028571,4.36301724 C40.4028571,1.99517241 42.0665595,0.257931034 44.4271548,0.257931034 C46.7745833,0.257931034 48.4495714,1.99517241 48.4495714,4.36301724 C48.4495714,6.73086207 46.7745833,8.46810345 44.4271548,8.46810345 C42.0665595,8.46810345 40.4028571,6.73086207 40.4028571,4.36301724 L40.4028571,4.36301724 Z M47.0350952,4.36301724 C47.0350952,2.7225 46.0080952,1.49637931 44.4290357,1.49637931 C42.835869,1.49637931 41.8210952,2.72155172 41.8210952,4.36301724 C41.8210952,5.99405172 42.835869,7.23060345 44.4290357,7.23060345 C46.0080952,7.23060345 47.0350952,5.99405172 47.0350952,4.36301724 L47.0350952,4.36301724 Z" id="Shape"></path>
                        <path d="M55.5492262,8.32586207 L51.4431071,2.65043103 L51.4431071,8.32586207 L50.0634286,8.32586207 L50.0634286,0.388793103 L51.4797857,0.388793103 L55.5012619,5.885 L55.5012619,0.388793103 L56.8837619,0.388793103 L56.8837619,8.32586207 L55.5492262,8.32586207 L55.5492262,8.32586207 Z" id="Shape"></path>
                    </g>
                    <g id="Group" transform="translate(6.583333, 21.810345)">
                        <path d="M13.7215476,13.1734483 L17.7590119,9.10344828 L17.7580714,9.10344828 L13.7215476,13.1734483 L0.837964286,0.182068966 L0.83702381,0.182068966 L13.7215476,13.1753448 L0.816333333,26.1866379 L13.7215476,13.1753448 L17.776881,17.2633621 L17.7787619,17.2633621 L13.7215476,13.1734483 Z" id="Shape"></path>
                        <path d="M17.7580714,9.10344828 L2.02766667,0.382155172 C1.58282143,0.136551724 1.16995238,0.0796551724 0.837964286,0.183017241 L13.7224881,13.1734483 L17.7580714,9.10344828 L17.7580714,9.10344828 Z" id="Shape" fill="url(#linearGradient-1)"></path>
                        <path d="M17.7787619,17.2633621 L23.1479405,14.2848276 C24.2370119,13.677931 24.2370119,12.6926724 23.1479405,12.0905172 L17.7590119,9.10344828 L13.7224881,13.1734483 L17.7787619,17.2633621 L17.7787619,17.2633621 Z" id="Shape" fill="url(#linearGradient-2)"></path>
                        <path d="M0.83702381,0.182068966 C0.359261905,0.332844828 0.0489047619,0.822155172 0.0489047619,1.56086207 L0.0517261905,24.8144828 C0.0517261905,25.5446552 0.352678571,26.025431 0.816333333,26.1856897 L13.7224881,13.1725 L0.83702381,0.182068966 L0.83702381,0.182068966 Z" id="Shape" fill="url(#linearGradient-3)"></path>
                        <path d="M0.816333333,26.1866379 C1.15208333,26.3013793 1.57247619,26.2463793 2.02766667,25.9960345 L17.7778214,17.2633621 L13.7224881,13.1743966 L0.816333333,26.1866379 L0.816333333,26.1866379 Z" id="Shape" fill="url(#linearGradient-4)"></path>
                    </g>
                </g>
            </g>
        </g>
    </g>
</svg>