<?xml version="1.0" encoding="UTF-8" standalone="no"?>
<svg width="127px" height="29px" viewBox="0 0 127 29" version="1.1" xmlns="http://www.w3.org/2000/svg" xmlns:xlink="http://www.w3.org/1999/xlink" xmlns:sketch="http://www.bohemiancoding.com/sketch/ns">
    <!-- Generator: Sketch 3.1.1 (8761) - http://www.bohemiancoding.com/sketch -->
    <title>logo-white</title>
    <desc>Created with Sketch.</desc>
    <defs></defs>
    <g id="Page-1" stroke="none" stroke-width="1" fill="none" fill-rule="evenodd" sketch:type="MSPage">
        <g id="HomePage_15" sketch:type="MSArtboardGroup" transform="translate(-100.000000, -4258.000000)" fill="#FFFFFF">
            <g id="Footer-4" sketch:type="MSLayerGroup" transform="translate(0.000000, 4228.000000)">
                <g id="Fill-2-+-FLYWHEEL-+-About" transform="translate(100.000000, 30.000000)" sketch:type="MSShapeGroup">
                    <path d="M53.4749656,10.7438151 L53.4749656,8.5125651 L44.1489493,8.5125651 C43.8093774,8.5125651 43.4661196,8.79557292 43.4661196,9.18339844 L43.4661196,22.9605469 L46.0283436,22.9605469 L46.0283436,16.7001953 L53.3215362,16.7001953 L53.3215362,14.469401 L46.0283436,14.469401 L46.0283436,10.7438151 L53.4749656,10.7438151 Z M126.605475,8.5125651 L124.305877,8.5125651 L124.305877,22.9610026 L125.921263,22.9610026 C126.198633,22.9610026 126.605475,22.7518229 126.605014,22.2837891 L126.605475,8.5125651 Z M55.0170918,8.5125651 L57.3157675,8.5125651 L57.3157675,22.9614583 L55.0170918,22.9614583 L55.0170918,8.5125651 Z M81.3627077,22.9610026 L78.888026,15.2924479 L76.4354601,22.9610026 L74.025744,22.9610026 L70.7406051,12.4979167 L73.1282053,12.4979167 L75.3623762,20.1008464 L77.8799076,12.4979167 L79.916878,12.4979167 L82.4141365,20.1008464 L84.6478466,12.4979167 L87.0566413,12.4979167 L83.7715024,22.9610026 L81.3627077,22.9610026 Z M95.9182228,22.9610026 L95.9182228,16.3757161 C95.9182228,14.7291667 95.0861105,14.252474 93.7941709,14.252474 C92.6114287,14.252474 91.6042319,14.945638 91.0785175,15.6392578 L91.0785175,22.9610026 L88.7789203,22.9610026 L88.7789203,8.51210937 L91.0785175,8.51210937 L91.0785175,13.9061198 C91.7797772,13.0826172 93.1376039,12.238151 94.8013678,12.238151 C97.0793098,12.238151 98.2173593,13.4080078 98.2173593,15.553125 L98.2173593,22.9610026 L95.9182228,22.9610026 Z M15.8898436,0.477604167 L12.2001673,5.67473958 L36.612942,5.67473958 L40.631593,0 L16.89059,0 C16.4860525,0 16.12759,0.188216146 15.8898436,0.477604167 Z M10.1825483,22.9459635 C7.74795169,22.9459635 5.76995713,20.9904297 5.76995713,18.581901 C5.76995713,16.1761068 7.74795169,14.2223958 10.1825483,14.2223958 C12.6143804,14.2223958 14.5919143,16.1761068 14.5919143,18.581901 C14.5919143,20.9904297 12.6143804,22.9459635 10.1825483,22.9459635 Z M10.1936063,8.5125651 L10.1825483,8.5125651 C4.56786353,8.5125651 0,13.0288411 0,18.581901 C0,24.1345052 4.56786353,28.6516927 10.1825483,28.6516927 C15.7990761,28.6516927 20.3618714,24.1345052 20.3618714,18.581901 C20.3618714,17.008724 19.9937331,15.5166667 19.3394698,14.1877604 L29.9205658,14.1877604 C30.3873043,14.1877604 30.7946063,13.9416667 31.0231377,13.5757161 L34.6059203,8.5125651 L10.1936063,8.5125651 M102.326778,16.8524089 C102.41432,15.5959635 103.333975,14.1016276 105.283864,14.1016276 C107.364144,14.1016276 108.217912,15.6178385 108.283799,16.8524089 L102.326778,16.8524089 L102.326778,16.8524089 Z M110.495393,17.9133464 C110.495393,14.6211589 108.480539,12.2386068 105.305519,12.2386068 C102.173809,12.2386068 99.9396383,14.6863281 99.9396383,17.7192057 C99.9396383,19.4318359 100.569021,20.825 101.613999,21.7738281 C102.551162,22.6711589 103.826054,23.2207682 105.305519,23.2207682 C107.53969,23.2207682 109.19516,22.038151 109.98304,20.1910807 L107.925797,20.1910807 C107.482096,20.8181641 106.811246,21.3117188 105.465859,21.3481771 C103.615953,21.2483724 102.516606,19.9741536 102.348894,18.4770833 L110.495393,18.4770833 L110.495393,17.9133464 L110.495393,17.9133464 Z M114.414522,16.8524089 C114.502525,15.5959635 115.42218,14.1016276 117.371608,14.1016276 C119.451889,14.1016276 120.305656,15.6178385 120.371543,16.8524089 L114.414522,16.8524089 L114.414522,16.8524089 Z M122.583598,17.9133464 C122.583598,14.6211589 120.568744,12.2386068 117.393263,12.2386068 C114.261554,12.2386068 112.027844,14.6863281 112.027844,17.7192057 C112.027844,19.4318359 112.656766,20.825 113.702665,21.7738281 C114.639368,22.6711589 115.913799,23.2207682 117.393263,23.2207682 C119.627895,23.2207682 121.283365,22.038151 122.070785,20.1910807 L120.013542,20.1910807 C119.570301,20.8181641 118.899451,21.3117188 117.554065,21.3481771 C115.703697,21.2483724 114.604812,19.9741536 114.436178,18.4770833 L122.583598,18.4770833 L122.583598,17.9133464 L122.583598,17.9133464 Z M67.6890658,12.4979167 L64.6015882,20.3401042 L61.5136498,12.4979167 L59.038968,12.4979167 L63.3967301,23.0904297 C63.5257397,24.3682943 62.4079632,25.282487 61.3182923,25.238737 C61.3182923,25.238737 61.0879179,25.2300781 60.8105471,25.1498698 L60.8105471,27.1669271 C61.0409215,27.1919922 61.2703744,27.2061198 61.425186,27.2061198 C63.0682162,27.1847005 64.3168454,26.6214193 65.0397603,24.844987 L70.1420924,12.4979167 L67.6890658,12.4979167" id="logo-white"></path>
                </g>
            </g>
        </g>
    </g>
</svg>