<?xml version="1.0" encoding="UTF-8" standalone="no"?>
<svg width="147px" height="33px" viewBox="0 0 147 33" version="1.1" xmlns="http://www.w3.org/2000/svg" xmlns:xlink="http://www.w3.org/1999/xlink" xmlns:sketch="http://www.bohemiancoding.com/sketch/ns">
    <!-- Generator: Sketch 3.1.1 (8761) - http://www.bohemiancoding.com/sketch -->
    <title>logo-red</title>
    <desc>Created with Sketch.</desc>
    <defs></defs>
    <g id="Page-1" stroke="none" stroke-width="1" fill="none" fill-rule="evenodd" sketch:type="MSPage">
        <g id="HomePage_05" sketch:type="MSArtboardGroup" transform="translate(-30.000000, -38.000000)" fill="#EA1219">
            <g id="Group-4" sketch:type="MSLayerGroup">
                <g id="Rectangle-1-+-Fill-1-+-About-+-Drivers-+-FAQ" sketch:type="MSShapeGroup">
                    <path d="M92.0890997,50.3743439 L92.0890997,47.8044695 L81.2607813,47.8044695 C80.8665087,47.8044695 80.4679564,48.1304279 80.4679564,48.5771115 L80.4679564,64.4451408 L83.442922,64.4451408 L83.442922,57.2346906 L91.9109549,57.2346906 L91.9109549,54.6653412 L83.442922,54.6653412 L83.442922,50.3743439 L92.0890997,50.3743439 Z M177,47.8044695 L174.329967,47.8044695 L174.329967,64.4456657 L176.20557,64.4456657 C176.527622,64.4456657 177,64.2047399 176.999465,63.6656752 L177,47.8044695 Z M93.8796428,47.8044695 L96.5486058,47.8044695 L96.5486058,64.4461906 L93.8796428,64.4461906 L93.8796428,47.8044695 Z M124.469201,64.4456657 L121.59588,55.6132973 L118.748237,64.4456657 L115.950346,64.4456657 L112.136013,52.3946556 L114.908225,52.3946556 L117.502293,61.1514395 L120.425366,52.3946556 L122.790467,52.3946556 L125.690002,61.1514395 L128.283534,52.3946556 L131.080355,52.3946556 L127.266022,64.4456657 L124.469201,64.4456657 Z M141.369424,64.4456657 L141.369424,56.8609671 C141.369424,54.96453 140.403269,54.4154923 138.903214,54.4154923 C137.529947,54.4154923 136.360504,55.213854 135.750104,56.0127406 L135.750104,64.4456657 L133.080071,64.4456657 L133.080071,47.8039446 L135.750104,47.8039446 L135.750104,54.0165739 C136.564327,53.0680929 138.140883,52.0954668 140.072658,52.0954668 C142.717547,52.0954668 144.038922,53.4428662 144.038922,55.9135359 L144.038922,64.4456657 L141.369424,64.4456657 Z M48.4494945,38.5500875 L44.1654584,44.5359631 L72.5108195,44.5359631 L77.1768238,38 L49.6114483,38 C49.1417451,38 48.7255388,38.2167807 48.4494945,38.5500875 Z M41.8228268,64.4283442 C38.9960478,64.4283442 36.6994235,62.1760299 36.6994235,59.4019723 C36.6994235,56.6310641 38.9960478,54.3808494 41.8228268,54.3808494 C44.6463961,54.3808494 46.9424853,56.6310641 46.9424853,59.4019723 C46.9424853,62.1760299 44.6463961,64.4283442 41.8228268,64.4283442 Z M41.8356661,47.8044695 L41.8228268,47.8044695 C35.303688,47.8044695 30,53.0061556 30,59.4019723 C30,65.7972642 35.303688,71 41.8228268,71 C48.3441055,71 53.6419089,65.7972642 53.6419089,59.4019723 C53.6419089,57.5900429 53.2144682,55.8715445 52.4548115,54.3409575 L64.7403869,54.3409575 C65.2823111,54.3409575 65.7552241,54.0575155 66.020569,53.6360267 L70.1804922,47.8044695 L41.8356661,47.8044695 M148.810315,57.4100048 C148.911959,55.9628758 149.979758,54.2417528 152.24375,54.2417528 C154.659137,54.2417528 155.650436,55.9880706 155.726936,57.4100048 L148.810315,57.4100048 L148.810315,57.4100048 Z M158.29479,58.6319548 C158.29479,54.8401304 155.955368,52.0959917 152.268893,52.0959917 C148.632705,52.0959917 146.038638,54.9151901 146.038638,58.4083506 C146.038638,60.3808971 146.769406,61.9854939 147.982717,63.0783203 C149.070845,64.1118339 150.551106,64.7448545 152.268893,64.7448545 C154.86296,64.7448545 156.785106,63.3827581 157.699904,61.2553682 L155.311265,61.2553682 C154.796089,61.9776205 154.017174,62.5460792 152.455063,62.5880706 C150.30716,62.4731191 149.030723,61.0055193 148.835994,59.281247 L158.29479,59.281247 L158.29479,58.6319548 L158.29479,58.6319548 Z M162.845241,57.4100048 C162.94742,55.9628758 164.015219,54.2417528 166.278675,54.2417528 C168.694063,54.2417528 169.685361,55.9880706 169.761862,57.4100048 L162.845241,57.4100048 L162.845241,57.4100048 Z M172.330251,58.6319548 C172.330251,54.8401304 169.990829,52.0959917 166.303819,52.0959917 C162.667631,52.0959917 160.074099,54.9151901 160.074099,58.4083506 C160.074099,60.3808971 160.804332,61.9854939 162.018713,63.0783203 C163.106306,64.1118339 164.586032,64.7448545 166.303819,64.7448545 C168.898421,64.7448545 170.820567,63.3827581 171.73483,61.2553682 L169.346191,61.2553682 C168.83155,61.9776205 168.052634,62.5460792 166.490523,62.5880706 C164.342086,62.4731191 163.066183,61.0055193 162.870385,59.281247 L172.330251,59.281247 L172.330251,58.6319548 L172.330251,58.6319548 Z M108.59291,52.3946556 L105.008079,61.4270081 L101.422713,52.3946556 L98.5493919,52.3946556 L103.609134,64.5947352 C103.758925,66.0665341 102.461089,67.1194687 101.195886,67.0690791 C101.195886,67.0690791 100.928401,67.0591061 100.60635,66.966725 L100.60635,69.2898998 C100.873835,69.3187689 101.140249,69.3350406 101.319999,69.3350406 C103.227701,69.3103706 104.677468,68.6616033 105.516835,66.6155718 L111.441088,52.3946556 L108.59291,52.3946556" id="logo-red"></path>
                </g>
            </g>
        </g>
    </g>
</svg>